<mxfile host="app.diagrams.net" modified="2024-05-12T14:02:10.749Z" agent="Mozilla/5.0 (Windows NT 10.0; Win64; x64) AppleWebKit/537.36 (KHTML, like Gecko) Chrome/124.0.0.0 Safari/537.36" version="24.3.1" etag="N_L-pR6oYjPZaiPdkT1N" type="github">
  <diagram name="Страница — 1" id="1NuCGW4OHWaXXtDaOmb5">
    <mxGraphModel>
      <root>
        <mxCell id="0" />
        <mxCell id="1" parent="0" />
      </root>
    </mxGraphModel>
  </diagram>
</mxfile>
